<?xml version='1.0' encoding='UTF-8'?>
<svg width="49mm" height="49mm" version="1.1" viewBox="0 0 49 49" xmlns="http://www.w3.org/2000/svg"><path d="M4,4H5V5H4zM5,4H6V5H5zM6,4H7V5H6zM7,4H8V5H7zM8,4H9V5H8zM9,4H10V5H9zM10,4H11V5H10zM13,4H14V5H13zM15,4H16V5H15zM16,4H17V5H16zM17,4H18V5H17zM18,4H19V5H18zM19,4H20V5H19zM21,4H22V5H21zM23,4H24V5H23zM25,4H26V5H25zM26,4H27V5H26zM28,4H29V5H28zM29,4H30V5H29zM33,4H34V5H33zM34,4H35V5H34zM36,4H37V5H36zM38,4H39V5H38zM39,4H40V5H39zM40,4H41V5H40zM41,4H42V5H41zM42,4H43V5H42zM43,4H44V5H43zM44,4H45V5H44zM4,5H5V6H4zM10,5H11V6H10zM12,5H13V6H12zM13,5H14V6H13zM14,5H15V6H14zM17,5H18V6H17zM18,5H19V6H18zM19,5H20V6H19zM20,5H21V6H20zM21,5H22V6H21zM22,5H23V6H22zM24,5H25V6H24zM26,5H27V6H26zM32,5H33V6H32zM36,5H37V6H36zM38,5H39V6H38zM44,5H45V6H44zM4,6H5V7H4zM6,6H7V7H6zM7,6H8V7H7zM8,6H9V7H8zM10,6H11V7H10zM12,6H13V7H12zM17,6H18V7H17zM19,6H20V7H19zM20,6H21V7H20zM23,6H24V7H23zM26,6H27V7H26zM27,6H28V7H27zM29,6H30V7H29zM31,6H32V7H31zM33,6H34V7H33zM35,6H36V7H35zM36,6H37V7H36zM38,6H39V7H38zM40,6H41V7H40zM41,6H42V7H41zM42,6H43V7H42zM44,6H45V7H44zM4,7H5V8H4zM6,7H7V8H6zM7,7H8V8H7zM8,7H9V8H8zM10,7H11V8H10zM12,7H13V8H12zM14,7H15V8H14zM16,7H17V8H16zM17,7H18V8H17zM20,7H21V8H20zM23,7H24V8H23zM24,7H25V8H24zM26,7H27V8H26zM28,7H29V8H28zM33,7H34V8H33zM34,7H35V8H34zM36,7H37V8H36zM38,7H39V8H38zM40,7H41V8H40zM41,7H42V8H41zM42,7H43V8H42zM44,7H45V8H44zM4,8H5V9H4zM6,8H7V9H6zM7,8H8V9H7zM8,8H9V9H8zM10,8H11V9H10zM12,8H13V9H12zM14,8H15V9H14zM18,8H19V9H18zM21,8H22V9H21zM22,8H23V9H22zM25,8H26V9H25zM26,8H27V9H26zM29,8H30V9H29zM34,8H35V9H34zM38,8H39V9H38zM40,8H41V9H40zM41,8H42V9H41zM42,8H43V9H42zM44,8H45V9H44zM4,9H5V10H4zM10,9H11V10H10zM12,9H13V10H12zM14,9H15V10H14zM17,9H18V10H17zM20,9H21V10H20zM21,9H22V10H21zM24,9H25V10H24zM26,9H27V10H26zM28,9H29V10H28zM36,9H37V10H36zM38,9H39V10H38zM44,9H45V10H44zM4,10H5V11H4zM5,10H6V11H5zM6,10H7V11H6zM7,10H8V11H7zM8,10H9V11H8zM9,10H10V11H9zM10,10H11V11H10zM12,10H13V11H12zM14,10H15V11H14zM16,10H17V11H16zM18,10H19V11H18zM20,10H21V11H20zM22,10H23V11H22zM24,10H25V11H24zM26,10H27V11H26zM28,10H29V11H28zM30,10H31V11H30zM32,10H33V11H32zM34,10H35V11H34zM36,10H37V11H36zM38,10H39V11H38zM39,10H40V11H39zM40,10H41V11H40zM41,10H42V11H41zM42,10H43V11H42zM43,10H44V11H43zM44,10H45V11H44zM15,11H16V12H15zM16,11H17V12H16zM17,11H18V12H17zM20,11H21V12H20zM21,11H22V12H21zM22,11H23V12H22zM23,11H24V12H23zM24,11H25V12H24zM25,11H26V12H25zM26,11H27V12H26zM27,11H28V12H27zM28,11H29V12H28zM30,11H31V12H30zM31,11H32V12H31zM32,11H33V12H32zM34,11H35V12H34zM6,12H7V13H6zM9,12H10V13H9zM10,12H11V13H10zM11,12H12V13H11zM12,12H13V13H12zM15,12H16V13H15zM18,12H19V13H18zM21,12H22V13H21zM22,12H23V13H22zM23,12H24V13H23zM25,12H26V13H25zM28,12H29V13H28zM29,12H30V13H29zM37,12H38V13H37zM39,12H40V13H39zM40,12H41V13H40zM41,12H42V13H41zM42,12H43V13H42zM43,12H44V13H43zM7,13H8V14H7zM8,13H9V14H8zM9,13H10V14H9zM11,13H12V14H11zM13,13H14V14H13zM14,13H15V14H14zM18,13H19V14H18zM21,13H22V14H21zM22,13H23V14H22zM23,13H24V14H23zM26,13H27V14H26zM29,13H30V14H29zM31,13H32V14H31zM32,13H33V14H32zM34,13H35V14H34zM35,13H36V14H35zM36,13H37V14H36zM38,13H39V14H38zM39,13H40V14H39zM42,13H43V14H42zM44,13H45V14H44zM6,14H7V15H6zM10,14H11V15H10zM11,14H12V15H11zM16,14H17V15H16zM17,14H18V15H17zM19,14H20V15H19zM21,14H22V15H21zM25,14H26V15H25zM26,14H27V15H26zM27,14H28V15H27zM28,14H29V15H28zM31,14H32V15H31zM33,14H34V15H33zM35,14H36V15H35zM38,14H39V15H38zM40,14H41V15H40zM41,14H42V15H41zM42,14H43V15H42zM44,14H45V15H44zM4,15H5V16H4zM5,15H6V16H5zM6,15H7V16H6zM7,15H8V16H7zM8,15H9V16H8zM9,15H10V16H9zM11,15H12V16H11zM12,15H13V16H12zM15,15H16V16H15zM17,15H18V16H17zM18,15H19V16H18zM20,15H21V16H20zM21,15H22V16H21zM22,15H23V16H22zM23,15H24V16H23zM24,15H25V16H24zM25,15H26V16H25zM26,15H27V16H26zM28,15H29V16H28zM29,15H30V16H29zM30,15H31V16H30zM32,15H33V16H32zM35,15H36V16H35zM36,15H37V16H36zM40,15H41V16H40zM41,15H42V16H41zM43,15H44V16H43zM5,16H6V17H5zM7,16H8V17H7zM10,16H11V17H10zM11,16H12V17H11zM12,16H13V17H12zM14,16H15V17H14zM15,16H16V17H15zM17,16H18V17H17zM18,16H19V17H18zM19,16H20V17H19zM22,16H23V17H22zM23,16H24V17H23zM24,16H25V17H24zM26,16H27V17H26zM30,16H31V17H30zM32,16H33V17H32zM36,16H37V17H36zM37,16H38V17H37zM38,16H39V17H38zM39,16H40V17H39zM4,17H5V18H4zM6,17H7V18H6zM8,17H9V18H8zM12,17H13V18H12zM13,17H14V18H13zM15,17H16V18H15zM16,17H17V18H16zM17,17H18V18H17zM21,17H22V18H21zM22,17H23V18H22zM24,17H25V18H24zM25,17H26V18H25zM26,17H27V18H26zM27,17H28V18H27zM28,17H29V18H28zM29,17H30V18H29zM30,17H31V18H30zM32,17H33V18H32zM33,17H34V18H33zM35,17H36V18H35zM36,17H37V18H36zM38,17H39V18H38zM39,17H40V18H39zM41,17H42V18H41zM42,17H43V18H42zM44,17H45V18H44zM4,18H5V19H4zM5,18H6V19H5zM8,18H9V19H8zM10,18H11V19H10zM14,18H15V19H14zM15,18H16V19H15zM18,18H19V19H18zM20,18H21V19H20zM21,18H22V19H21zM24,18H25V19H24zM28,18H29V19H28zM30,18H31V19H30zM32,18H33V19H32zM33,18H34V19H33zM35,18H36V19H35zM36,18H37V19H36zM37,18H38V19H37zM38,18H39V19H38zM42,18H43V19H42zM43,18H44V19H43zM44,18H45V19H44zM4,19H5V20H4zM7,19H8V20H7zM9,19H10V20H9zM11,19H12V20H11zM12,19H13V20H12zM13,19H14V20H13zM14,19H15V20H14zM16,19H17V20H16zM17,19H18V20H17zM19,19H20V20H19zM20,19H21V20H20zM22,19H23V20H22zM24,19H25V20H24zM25,19H26V20H25zM26,19H27V20H26zM28,19H29V20H28zM30,19H31V20H30zM31,19H32V20H31zM32,19H33V20H32zM34,19H35V20H34zM35,19H36V20H35zM37,19H38V20H37zM38,19H39V20H38zM41,19H42V20H41zM43,19H44V20H43zM44,19H45V20H44zM5,20H6V21H5zM6,20H7V21H6zM7,20H8V21H7zM10,20H11V21H10zM11,20H12V21H11zM12,20H13V21H12zM13,20H14V21H13zM16,20H17V21H16zM19,20H20V21H19zM20,20H21V21H20zM22,20H23V21H22zM24,20H25V21H24zM25,20H26V21H25zM26,20H27V21H26zM27,20H28V21H27zM28,20H29V21H28zM30,20H31V21H30zM32,20H33V21H32zM35,20H36V21H35zM36,20H37V21H36zM37,20H38V21H37zM38,20H39V21H38zM41,20H42V21H41zM4,21H5V22H4zM8,21H9V22H8zM12,21H13V22H12zM13,21H14V22H13zM14,21H15V22H14zM16,21H17V22H16zM17,21H18V22H17zM18,21H19V22H18zM19,21H20V22H19zM20,21H21V22H20zM22,21H23V22H22zM24,21H25V22H24zM25,21H26V22H25zM27,21H28V22H27zM28,21H29V22H28zM29,21H30V22H29zM31,21H32V22H31zM32,21H33V22H32zM33,21H34V22H33zM35,21H36V22H35zM36,21H37V22H36zM37,21H38V22H37zM38,21H39V22H38zM39,21H40V22H39zM41,21H42V22H41zM42,21H43V22H42zM44,21H45V22H44zM4,22H5V23H4zM6,22H7V23H6zM7,22H8V23H7zM10,22H11V23H10zM11,22H12V23H11zM12,22H13V23H12zM13,22H14V23H13zM18,22H19V23H18zM19,22H20V23H19zM22,22H23V23H22zM24,22H25V23H24zM25,22H26V23H25zM27,22H28V23H27zM28,22H29V23H28zM31,22H32V23H31zM32,22H33V23H32zM33,22H34V23H33zM34,22H35V23H34zM35,22H36V23H35zM37,22H38V23H37zM39,22H40V23H39zM40,22H41V23H40zM43,22H44V23H43zM44,22H45V23H44zM4,23H5V24H4zM5,23H6V24H5zM7,23H8V24H7zM13,23H14V24H13zM15,23H16V24H15zM17,23H18V24H17zM18,23H19V24H18zM19,23H20V24H19zM24,23H25V24H24zM25,23H26V24H25zM26,23H27V24H26zM27,23H28V24H27zM29,23H30V24H29zM32,23H33V24H32zM34,23H35V24H34zM41,23H42V24H41zM6,24H7V25H6zM8,24H9V25H8zM10,24H11V25H10zM11,24H12V25H11zM12,24H13V25H12zM14,24H15V25H14zM16,24H17V25H16zM17,24H18V25H17zM19,24H20V25H19zM23,24H24V25H23zM26,24H27V25H26zM27,24H28V25H27zM29,24H30V25H29zM31,24H32V25H31zM32,24H33V25H32zM36,24H37V25H36zM37,24H38V25H37zM38,24H39V25H38zM44,24H45V25H44zM4,25H5V26H4zM6,25H7V26H6zM8,25H9V26H8zM12,25H13V26H12zM13,25H14V26H13zM16,25H17V26H16zM17,25H18V26H17zM18,25H19V26H18zM20,25H21V26H20zM21,25H22V26H21zM25,25H26V26H25zM28,25H29V26H28zM29,25H30V26H29zM31,25H32V26H31zM35,25H36V26H35zM36,25H37V26H36zM38,25H39V26H38zM39,25H40V26H39zM41,25H42V26H41zM42,25H43V26H42zM44,25H45V26H44zM4,26H5V27H4zM5,26H6V27H5zM6,26H7V27H6zM7,26H8V27H7zM10,26H11V27H10zM11,26H12V27H11zM14,26H15V27H14zM16,26H17V27H16zM17,26H18V27H17zM18,26H19V27H18zM19,26H20V27H19zM20,26H21V27H20zM22,26H23V27H22zM23,26H24V27H23zM25,26H26V27H25zM27,26H28V27H27zM31,26H32V27H31zM32,26H33V27H32zM33,26H34V27H33zM35,26H36V27H35zM37,26H38V27H37zM38,26H39V27H38zM41,26H42V27H41zM42,26H43V27H42zM44,26H45V27H44zM4,27H5V28H4zM5,27H6V28H5zM8,27H9V28H8zM15,27H16V28H15zM16,27H17V28H16zM18,27H19V28H18zM20,27H21V28H20zM22,27H23V28H22zM25,27H26V28H25zM31,27H32V28H31zM34,27H35V28H34zM35,27H36V28H35zM36,27H37V28H36zM38,27H39V28H38zM41,27H42V28H41zM4,28H5V29H4zM5,28H6V29H5zM6,28H7V29H6zM8,28H9V29H8zM9,28H10V29H9zM10,28H11V29H10zM12,28H13V29H12zM14,28H15V29H14zM19,28H20V29H19zM21,28H22V29H21zM25,28H26V29H25zM31,28H32V29H31zM32,28H33V29H32zM35,28H36V29H35zM36,28H37V29H36zM38,28H39V29H38zM39,28H40V29H39zM41,28H42V29H41zM43,28H44V29H43zM7,29H8V30H7zM8,29H9V30H8zM9,29H10V30H9zM11,29H12V30H11zM16,29H17V30H16zM17,29H18V30H17zM18,29H19V30H18zM19,29H20V30H19zM22,29H23V30H22zM23,29H24V30H23zM24,29H25V30H24zM29,29H30V30H29zM31,29H32V30H31zM33,29H34V30H33zM34,29H35V30H34zM35,29H36V30H35zM37,29H38V30H37zM38,29H39V30H38zM39,29H40V30H39zM41,29H42V30H41zM44,29H45V30H44zM4,30H5V31H4zM5,30H6V31H5zM6,30H7V31H6zM7,30H8V31H7zM9,30H10V31H9zM10,30H11V31H10zM11,30H12V31H11zM13,30H14V31H13zM14,30H15V31H14zM15,30H16V31H15zM18,30H19V31H18zM20,30H21V31H20zM21,30H22V31H21zM23,30H24V31H23zM24,30H25V31H24zM25,30H26V31H25zM26,30H27V31H26zM29,30H30V31H29zM31,30H32V31H31zM33,30H34V31H33zM34,30H35V31H34zM35,30H36V31H35zM39,30H40V31H39zM40,30H41V31H40zM41,30H42V31H41zM42,30H43V31H42zM43,30H44V31H43zM44,30H45V31H44zM7,31H8V32H7zM8,31H9V32H8zM9,31H10V32H9zM11,31H12V32H11zM12,31H13V32H12zM13,31H14V32H13zM14,31H15V32H14zM15,31H16V32H15zM17,31H18V32H17zM19,31H20V32H19zM20,31H21V32H20zM21,31H22V32H21zM22,31H23V32H22zM23,31H24V32H23zM26,31H27V32H26zM28,31H29V32H28zM29,31H30V32H29zM30,31H31V32H30zM35,31H36V32H35zM36,31H37V32H36zM37,31H38V32H37zM40,31H41V32H40zM41,31H42V32H41zM44,31H45V32H44zM4,32H5V33H4zM5,32H6V33H5zM7,32H8V33H7zM10,32H11V33H10zM11,32H12V33H11zM13,32H14V33H13zM15,32H16V33H15zM19,32H20V33H19zM21,32H22V33H21zM25,32H26V33H25zM26,32H27V33H26zM27,32H28V33H27zM29,32H30V33H29zM30,32H31V33H30zM31,32H32V33H31zM32,32H33V33H32zM38,32H39V33H38zM39,32H40V33H39zM43,32H44V33H43zM44,32H45V33H44zM5,33H6V34H5zM6,33H7V34H6zM7,33H8V34H7zM8,33H9V34H8zM12,33H13V34H12zM13,33H14V34H13zM15,33H16V34H15zM17,33H18V34H17zM19,33H20V34H19zM20,33H21V34H20zM22,33H23V34H22zM28,33H29V34H28zM34,33H35V34H34zM35,33H36V34H35zM36,33H37V34H36zM37,33H38V34H37zM38,33H39V34H38zM39,33H40V34H39zM44,33H45V34H44zM4,34H5V35H4zM5,34H6V35H5zM7,34H8V35H7zM10,34H11V35H10zM11,34H12V35H11zM13,34H14V35H13zM14,34H15V35H14zM15,34H16V35H15zM17,34H18V35H17zM18,34H19V35H18zM23,34H24V35H23zM24,34H25V35H24zM27,34H28V35H27zM28,34H29V35H28zM30,34H31V35H30zM31,34H32V35H31zM33,34H34V35H33zM34,34H35V35H34zM35,34H36V35H35zM36,34H37V35H36zM37,34H38V35H37zM39,34H40V35H39zM42,34H43V35H42zM44,34H45V35H44zM11,35H12V36H11zM12,35H13V36H12zM13,35H14V36H13zM15,35H16V36H15zM19,35H20V36H19zM20,35H21V36H20zM25,35H26V36H25zM29,35H30V36H29zM31,35H32V36H31zM32,35H33V36H32zM34,35H35V36H34zM36,35H37V36H36zM38,35H39V36H38zM41,35H42V36H41zM43,35H44V36H43zM4,36H5V37H4zM5,36H6V37H5zM7,36H8V37H7zM9,36H10V37H9zM10,36H11V37H10zM16,36H17V37H16zM17,36H18V37H17zM18,36H19V37H18zM19,36H20V37H19zM21,36H22V37H21zM23,36H24V37H23zM24,36H25V37H24zM27,36H28V37H27zM29,36H30V37H29zM35,36H36V37H35zM36,36H37V37H36zM37,36H38V37H37zM38,36H39V37H38zM39,36H40V37H39zM40,36H41V37H40zM43,36H44V37H43zM12,37H13V38H12zM14,37H15V38H14zM15,37H16V38H15zM16,37H17V38H16zM17,37H18V38H17zM19,37H20V38H19zM21,37H22V38H21zM26,37H27V38H26zM27,37H28V38H27zM29,37H30V38H29zM30,37H31V38H30zM31,37H32V38H31zM32,37H33V38H32zM33,37H34V38H33zM35,37H36V38H35zM36,37H37V38H36zM40,37H41V38H40zM43,37H44V38H43zM44,37H45V38H44zM4,38H5V39H4zM5,38H6V39H5zM6,38H7V39H6zM7,38H8V39H7zM8,38H9V39H8zM9,38H10V39H9zM10,38H11V39H10zM12,38H13V39H12zM13,38H14V39H13zM21,38H22V39H21zM22,38H23V39H22zM24,38H25V39H24zM27,38H28V39H27zM29,38H30V39H29zM31,38H32V39H31zM32,38H33V39H32zM36,38H37V39H36zM38,38H39V39H38zM40,38H41V39H40zM44,38H45V39H44zM4,39H5V40H4zM10,39H11V40H10zM12,39H13V40H12zM14,39H15V40H14zM15,39H16V40H15zM16,39H17V40H16zM17,39H18V40H17zM18,39H19V40H18zM20,39H21V40H20zM21,39H22V40H21zM24,39H25V40H24zM25,39H26V40H25zM27,39H28V40H27zM28,39H29V40H28zM31,39H32V40H31zM32,39H33V40H32zM35,39H36V40H35zM36,39H37V40H36zM40,39H41V40H40zM41,39H42V40H41zM43,39H44V40H43zM44,39H45V40H44zM4,40H5V41H4zM6,40H7V41H6zM7,40H8V41H7zM8,40H9V41H8zM10,40H11V41H10zM14,40H15V41H14zM15,40H16V41H15zM16,40H17V41H16zM17,40H18V41H17zM21,40H22V41H21zM22,40H23V41H22zM27,40H28V41H27zM28,40H29V41H28zM29,40H30V41H29zM31,40H32V41H31zM32,40H33V41H32zM34,40H35V41H34zM35,40H36V41H35zM36,40H37V41H36zM37,40H38V41H37zM38,40H39V41H38zM39,40H40V41H39zM40,40H41V41H40zM41,40H42V41H41zM43,40H44V41H43zM44,40H45V41H44zM4,41H5V42H4zM6,41H7V42H6zM7,41H8V42H7zM8,41H9V42H8zM10,41H11V42H10zM16,41H17V42H16zM18,41H19V42H18zM19,41H20V42H19zM22,41H23V42H22zM23,41H24V42H23zM24,41H25V42H24zM25,41H26V42H25zM27,41H28V42H27zM28,41H29V42H28zM29,41H30V42H29zM30,41H31V42H30zM31,41H32V42H31zM32,41H33V42H32zM33,41H34V42H33zM35,41H36V42H35zM39,41H40V42H39zM40,41H41V42H40zM43,41H44V42H43zM44,41H45V42H44zM4,42H5V43H4zM6,42H7V43H6zM7,42H8V43H7zM8,42H9V43H8zM10,42H11V43H10zM12,42H13V43H12zM14,42H15V43H14zM17,42H18V43H17zM18,42H19V43H18zM19,42H20V43H19zM20,42H21V43H20zM22,42H23V43H22zM23,42H24V43H23zM24,42H25V43H24zM27,42H28V43H27zM29,42H30V43H29zM30,42H31V43H30zM31,42H32V43H31zM33,42H34V43H33zM34,42H35V43H34zM36,42H37V43H36zM37,42H38V43H37zM40,42H41V43H40zM42,42H43V43H42zM43,42H44V43H43zM44,42H45V43H44zM4,43H5V44H4zM10,43H11V44H10zM13,43H14V44H13zM14,43H15V44H14zM16,43H17V44H16zM21,43H22V44H21zM22,43H23V44H22zM24,43H25V44H24zM25,43H26V44H25zM26,43H27V44H26zM27,43H28V44H27zM30,43H31V44H30zM32,43H33V44H32zM34,43H35V44H34zM36,43H37V44H36zM37,43H38V44H37zM38,43H39V44H38zM41,43H42V44H41zM4,44H5V45H4zM5,44H6V45H5zM6,44H7V45H6zM7,44H8V45H7zM8,44H9V45H8zM9,44H10V45H9zM10,44H11V45H10zM16,44H17V45H16zM17,44H18V45H17zM18,44H19V45H18zM19,44H20V45H19zM22,44H23V45H22zM25,44H26V45H25zM27,44H28V45H27zM28,44H29V45H28zM29,44H30V45H29zM31,44H32V45H31zM32,44H33V45H32zM36,44H37V45H36zM37,44H38V45H37zM40,44H41V45H40zM44,44H45V45H44z" id="qr-path" fill="#000000" fill-opacity="1" fill-rule="nonzero" stroke="none"/></svg>